<svg width="36" height="27" viewBox="0 0 36 27" fill="none" xmlns="http://www.w3.org/2000/svg">
<path d="M35.553 24.5084C35.5313 24.4466 35.5059 24.3863 35.477 24.3275L24.6912 2.53405C24.1371 1.2533 22.9832 0.331271 21.6118 0.073386C20.2404 -0.184499 18.8304 0.255421 17.8489 1.24742L15.1987 6.29317L8.8387 19.6895C7.78856 21.7135 6.13266 23.0537 4.15991 23.5229L13.8984 3.91416C13.918 3.87427 13.936 3.83379 13.9526 3.79272C14.1118 3.43489 14.467 3.20451 14.8586 3.20503C14.8954 3.20566 14.9322 3.20838 14.9687 3.21319L16.5704 0.364139C15.5442 -0.0934275 14.3775 -0.120854 13.331 0.28799C12.2845 0.696833 11.4453 1.50787 11.0011 2.53988L0.203917 24.2833C0.187316 24.3144 0.171889 24.3462 0.157302 24.3791C-0.0826122 24.9102 -0.0463726 25.5253 0.254241 26.0246C0.554885 26.5239 1.08156 26.8437 1.66324 26.8801C1.95709 26.9046 2.25442 26.9168 2.54826 26.9168C6.41368 26.9168 9.83498 24.7568 11.6991 21.1378C11.707 21.1223 11.7149 21.1069 11.7221 21.0909L17.7907 8.30699L17.7924 8.30291L17.8463 8.18992L19.6227 4.45788L19.6201 4.45234L19.8875 3.88912C19.8987 3.86543 19.9093 3.84165 19.9192 3.81777C20.073 3.44684 20.435 3.20502 20.8366 3.20502C21.2381 3.20502 21.6001 3.44684 21.7539 3.81777C21.767 3.85009 21.783 3.88213 21.7973 3.91358L31.5015 23.522C29.5427 23.0514 27.895 21.712 26.8463 19.6901L20.4597 6.22095L18.6964 9.9824L23.9623 21.0885C23.9698 21.1043 23.9777 21.1203 23.9856 21.136C25.8785 24.8089 29.2031 26.9151 33.1099 26.9151C33.4183 26.9151 33.7305 26.9014 34.0378 26.8746C34.2323 26.8579 34.4221 26.8056 34.5978 26.7202C35.4521 26.3519 35.871 25.3812 35.5527 24.5069" fill="black"/>
</svg>
